:FULLY-SPECIFIED
:FORCE-ALL-JOINTS-BE-3DOF
:DEGREES
645
root 5.61208 16.4688 -2.95648 15.831 12.5857 -0.819006
lfemur -15.0211 21.709 -27.1943
ltibia 32.0515 -0 0
lfoot -38.8559 12.9241 0.40826
ltoes 24.2923 -0 0
rfemur -58.1559 -28.1736 30.6575
rtibia 66.4902 -0 0
rfoot -3.12593 -3.42652 -0.0577978
rtoes 1.03934 -0 0
lowerback -0.931337 -3.63686 -5.30218
upperback -2.12187 -4.85198 0.36575
thorax -1.17563 -2.35166 3.31864
lowerneck -9.91547 -7.51964 -0.126801
upperneck 6.31192 -10.6822 6.50538
head 4.06625 -4.95034 1.44027
lclavicle -1.97542e-014 -2.78299e-014 0
lhumerus -40.8624 -67.6439 122.876
lradius 72.0269 -0 0
lwrist 23.6123 0 0
lhand -5.82149 2.63188 0.0321405
lfingers 7.12502 -0 0
lthumb 20.0033 31.6157 0.0290187
rclavicle -1.97542e-014 -2.78299e-014 0
rhumerus -31.5843 -0.155973 -74.881
rradius 69.3599 -0 0
rwrist -23.7187 0 0
rhand -29.8575 -43.0992 -0.0391899
rfingers 7.12502 -0 0
rthumb -3.17981 -73.056 -0.0378184
646
root 5.59676 16.4368 -2.89394 16.2016 11.634 -0.585197
lfemur -15.3223 22.2324 -27.5954
ltibia 32.4282 -0 0
lfoot -39.0317 13.013 0.408279
ltoes 23.8026 -0 0
rfemur -59.177 -28.7432 31.7747
rtibia 66.7723 -0 0
rfoot -3.88891 -3.44207 -0.0490201
rtoes 1.40531 -0 0
lowerback -0.861333 -3.67915 -5.47601
upperback -2.05956 -4.913 0.20456
thorax -1.14548 -2.38277 3.25087
lowerneck -9.86594 -7.51818 -0.222282
upperneck 5.74375 -10.6453 6.72877
head 3.91462 -4.94559 1.54601
lclavicle -1.97542e-014 -2.78299e-014 0
lhumerus -41.8159 -68.2288 123.944
lradius 72.0552 -0 0
lwrist 23.8218 0 0
lhand -5.57389 2.88554 0.0255413
lfingers 7.12502 -0 0
lthumb 20.2415 31.8465 0.0232589
rclavicle -1.97542e-014 -2.78299e-014 0
rhumerus -33.3228 -1.00279 -75.5636
rradius 67.6594 -0 0
rwrist -22.3175 0 0
rhand -29.7884 -44.0178 -0.0336764
rfingers 7.12502 -0 0
rthumb -3.11315 -73.9754 -0.0324983
647
root 5.58195 16.4054 -2.82789 16.5456 10.6799 -0.369061
lfemur -15.6405 22.7337 -27.9586
ltibia 32.8987 -0 0
lfoot -39.0919 13.0581 0.39216
ltoes 23.2864 -0 0
rfemur -60.1158 -29.232 32.8279
rtibia 67.0371 -0 0
rfoot -4.65166 -3.4639 -0.0387314
rtoes 1.74976 -0 0
lowerback -0.795033 -3.72553 -5.62676
upperback -2.00069 -4.97927 0.0557392
thorax -1.11776 -2.41668 3.18295
lowerneck -9.82038 -7.50913 -0.310257
upperneck 5.20269 -10.5972 6.92751
head 3.76898 -4.93593 1.6423
lclavicle -1.97542e-014 -2.78299e-014 0
lhumerus -42.6775 -68.7849 124.905
lradius 72.1152 -0 0
lwrist 24.0278 0 0
lhand -5.35813 3.11536 0.0187728
lfingers 7.12502 -0 0
lthumb 20.449 32.0563 0.0173113
rclavicle -1.97542e-014 -2.78299e-014 0
rhumerus -34.975 -1.85178 -76.122
rradius 66.0681 -0 0
rwrist -21.0031 0 0
rhand -29.718 -44.8867 -0.0275321
rfingers 7.12502 -0 0
rthumb -3.04508 -74.8452 -0.0265689
648
root 5.56782 16.3751 -2.75817 16.8606 9.72159 -0.172896
lfemur -15.9733 23.2063 -28.2759
ltibia 33.4708 -0 0
lfoot -39.021 13.0503 0.357439
ltoes 22.745 -0 0
rfemur -60.9473 -29.6338 33.7933
rtibia 67.2813 -0 0
rfoot -5.41084 -3.49985 -0.0277469
rtoes 2.06809 -0 0
lowerback -0.734479 -3.77642 -5.7501
upperback -1.9467 -5.0512 -0.0779846
thorax -1.09298 -2.45357 3.1152
lowerneck -9.78006 -7.49109 -0.388892
upperneck 4.69486 -10.5368 7.0969
head 3.63081 -4.92056 1.72726
lclavicle -1.97542e-014 -2.78299e-014 0
lhumerus -43.4188 -69.3119 125.729
lradius 72.2144 -0 0
lwrist 24.229 0 0
lhand -5.17929 3.31672 0.012342
lfingers 7.12502 -0 0
lthumb 20.621 32.2409 0.0116132
rclavicle -1.97542e-014 -2.78299e-014 0
rhumerus -36.5325 -2.68875 -76.5402
rradius 64.6027 -0 0
rwrist -19.7904 0 0
rhand -29.6469 -45.697 -0.0210711
rfingers 7.12502 -0 0
rthumb -2.97647 -75.6563 -0.0203334
649
root 5.55457 16.346 -2.68458 17.144 8.75747 0.00107693
lfemur -16.3185 23.6431 -28.5393
ltibia 34.1526 -0 0
lfoot -38.8034 12.9803 0.30201
ltoes 22.1802 -0 0
rfemur -61.6457 -29.9431 34.6467
rtibia 67.5014 -0 0
rfoot -6.16313 -3.5578 -0.0170836
rtoes 2.35573 -0 0
lowerback -0.681731 -3.83223 -5.84167
upperback -1.89905 -5.12916 -0.193879
thorax -1.07164 -2.4936 3.04795
lowerneck -9.74624 -7.46266 -0.456351
upperneck 4.22633 -10.4633 7.23224
head 3.5016 -4.89866 1.79901
lclavicle -1.97542e-014 -2.78299e-014 0
lhumerus -44.0088 -69.8094 126.386
lradius 72.36 -0 0
lwrist 24.4239 0 0
lhand -5.04247 3.48502 0.00677059
lfingers 7.12502 -0 0
lthumb 20.7526 32.3961 0.00661635
rclavicle -1.97542e-014 -2.78299e-014 0
rhumerus -37.9872 -3.49909 -76.8033
rradius 63.2798 -0 0
rwrist -18.694 0 0
rhand -29.5763 -46.4395 -0.0146581
rfingers 7.12502 -0 0
rthumb -2.90822 -76.3996 -0.0141441
650
root 5.54236 16.3186 -2.60696 17.3933 7.78587 0.150716
lfemur -16.6735 24.0377 -28.7403
ltibia 34.9519 -0 0
lfoot -38.4236 12.8386 0.224316
ltoes 21.5933 -0 0
rfemur -62.1857 -30.1546 35.3639
rtibia 67.694 -0 0
rfoot -6.9052 -3.64554 -0.00795181
rtoes 2.60806 -0 0
lowerback -0.638861 -3.89338 -5.89712
upperback -1.85922 -5.21356 -0.289206
thorax -1.05424 -2.53697 2.98151
lowerneck -9.7202 -7.42242 -0.510805
upperneck 3.80313 -10.3755 7.32885
head 3.38282 -4.86945 1.85567
lclavicle -1.97542e-014 -2.78299e-014 0
lhumerus -44.415 -70.2772 126.841
lradius 72.5596 -0 0
lwrist 24.6112 0 0
lhand -4.95277 3.61566 0.0025653
lfingers 7.12502 -0 0
lthumb 20.8389 32.5179 0.00276074
rclavicle -1.97542e-014 -2.78299e-014 0
rhumerus -39.3315 -4.26805 -76.8971
rradius 62.1162 -0 0
rwrist -17.7287 0 0
rhand -29.5068 -47.1052 -0.00870362
rfingers 7.12502 -0 0
rthumb -2.84117 -77.066 -0.00839748
